<svg xmlns="http://www.w3.org/2000/svg" xmlns:xlink="http://www.w3.org/1999/xlink" width="29" height="35" viewBox="0 0 29 35"><defs><path id="3uuea" d="M1322.119 105.509v11.87c0 3.559-1.747 6.382-1.82 6.5a1.154 1.154 0 0 1-1.57.364 1.114 1.114 0 0 1-.372-1.543c.023-.038 1.48-2.427 1.48-5.32v-3.586a4.159 4.159 0 0 1-1.814.424c-1.014 0-1.945-.381-2.622-1.074a3.583 3.583 0 0 1-.428-.533 4.095 4.095 0 0 1-2.389.775c-1.926 0-3.874-1.385-3.874-4.032l.002-5.38c0-.135.004-.268.013-.4l-.753-.868-1.197 2.266c.456.305.833.73 1.092 1.258.7 1.425.456 3.615-1.533 5.394 1.27.741 2.542 1.806 3.52 3.473 2.87-1.266 6.656-.599 8.566 1.09a1.11 1.11 0 0 1 .088 1.584 1.148 1.148 0 0 1-.85.373c-.27 0-.542-.094-.76-.287-1.301-1.15-4.104-1.611-6.117-.71l.026.076c.196.59-.13 1.224-.729 1.416a1.14 1.14 0 0 1-1.437-.718 9.765 9.765 0 0 0-.304-.8l-.008-.02c-.983-2.26-2.543-3.327-4.158-4.061a34.257 34.257 0 0 1-2.358 1.084 1.145 1.145 0 0 1-1.491-.606 1.117 1.117 0 0 1 .615-1.467c.612-.252 2.39-1.031 3.263-1.622 1.575-1.065 2.004-2.427 1.614-3.222-.25-.51-.806-.678-1.524-.46-.65.197-1.69.564-2.79.952-.79.278-1.626.573-2.417.84-2.548.862-3.792 2.508-3.804 5.035-.016 3.533 3.114 9.44 4.136 11.27l19.019.002c.63 0 1.14.502 1.14 1.123a1.13 1.13 0 0 1-1.139 1.122h-19.686c-.406 0-.781-.214-.986-.559-.195-.33-4.785-8.158-4.763-12.969.014-2.957 1.336-5.18 3.845-6.508l2.82-5.346a313.45 313.45 0 0 0-1.553-1.969c-1.88-2.364-1.299-4.81.246-6.002 1.348-1.041 3.48-1.125 5.257.503 1.42-2.266 3.715-2.67 5.356-1.848 1.724.864 2.747 3.14 1.366 5.816-.204.394-.676 1.293-1.231 2.346l.439.507a3.882 3.882 0 0 1 1.278-1.175 3.705 3.705 0 0 1 3.648-.009c.696.396 1.236.997 1.591 1.745a3.75 3.75 0 0 1 2.16-.69c1.936 0 3.897 1.572 3.897 4.576zm-21.296-5.995l1.667-3.167c-1.012-1.259-2.095-1.328-2.726-.84-.634.488-.859 1.589.143 2.85.343.43.65.82.916 1.157zm2.797 5.086c.295-.089.587-.145.873-.172l2.226-4.216.008-.014c.7-1.328 1.334-2.533 1.58-3.007.738-1.433.347-2.437-.369-2.796-.714-.358-1.82-.094-2.557 1.332-.477.921-3.5 6.654-5.315 10.092l.666-.234c1.126-.397 2.189-.773 2.888-.985zm10.657 4.756l-.003-3.849V103.974c0-1.027-.344-1.81-.943-2.151a1.37 1.37 0 0 0-1.368.009c-.496.281-.82.84-.93 1.57l-.002.009c-.026.178-.04.365-.04.563l-.002 5.38c0 .602.168 1.066.5 1.379.279.263.668.408 1.095.408.629 0 1.692-.376 1.693-1.785zm5.561.728v-4.574c0-1.61-.812-2.332-1.616-2.332-.796 0-1.65.715-1.667 2.281v.759l.002 3.135v.003l.001.702c0 .675.168 1.203.485 1.529.312.318.706.386.98.386.88 0 1.816-.663 1.816-1.889z"/></defs><g><g transform="translate(-1293 -92)"><use fill="#eb5238" xlink:href="#3uuea"/></g></g></svg>