<svg xmlns="http://www.w3.org/2000/svg" xmlns:xlink="http://www.w3.org/1999/xlink" width="32" height="29" viewBox="0 0 32 29"><defs><path id="4lw2a" d="M831.516 1547c8.016 0 14.515 6.492 14.515 14.5s-6.499 14.5-14.515 14.5c-8.017 0-14.516-6.492-14.516-14.5s6.499-14.5 14.516-14.5z"/><path id="4lw2b" d="M848.623 1548.954l-.491-.525a1.327 1.327 0 0 0-1.963 0l-8.336 8.928-2.958-3.167a1.326 1.326 0 0 0-1.962 0l-.49.525a1.568 1.568 0 0 0 0 2.102l4.426 4.745c.54.577 1.423.577 1.962 0l9.812-10.507a1.569 1.569 0 0 0 0-2.101z"/></defs><g><g transform="translate(-817 -1547)"><g><use fill="#fff9df" xlink:href="#4lw2a"/></g><g><use fill="#eb5238" xlink:href="#4lw2b"/></g></g></g></svg>