<svg xmlns="http://www.w3.org/2000/svg" xmlns:xlink="http://www.w3.org/1999/xlink" width="46" height="38" viewBox="0 0 46 38"><defs><path id="mxp1a" d="M245.224 2088.291c0 1.493-1.243 2.709-2.772 2.709h-9.384a6.574 6.574 0 0 1-5.02-2.3l-2.244-2.636a4.765 4.765 0 0 0-3.612-1.666 2.23 2.23 0 0 1-2.065 1.363h-.933a.888.888 0 0 1-.898-.878c0-.484.402-.877.898-.877h.933c.237 0 .43-.189.43-.42v-7.036a.426.426 0 0 0-.43-.42h-3.33v5.54a.888.888 0 0 1-.899.878.888.888 0 0 1-.898-.877v-6.42c0-.484.402-.877.898-.877h4.229c.922 0 1.714.55 2.052 1.332h3.482c2.1 0 4.087.784 5.597 2.209l4.844 4.567a2.59 2.59 0 0 1 .108 3.66 2.703 2.703 0 0 1-1.97.84 2.704 2.704 0 0 1-1.81-.686l-3.802-3.406a.864.864 0 0 1-.055-1.24.913.913 0 0 1 1.269-.054l3.802 3.406a.899.899 0 0 0 1.245-.051.853.853 0 0 0-.035-1.205l-4.843-4.568a6.309 6.309 0 0 0-4.35-1.717h-3.307v5.185a6.568 6.568 0 0 1 4.831 2.296l2.244 2.635a4.765 4.765 0 0 0 3.64 1.667h9.383a.966.966 0 0 0 .976-.953.966.966 0 0 0-.976-.953h-3.486a.888.888 0 0 1-.898-.878c0-.485.402-.878.898-.878h3.486c1.529 0 2.772 1.215 2.772 2.71zM261 2061.986v6.762a.888.888 0 0 1-.898.878h-4.23c-.92 0-1.714-.55-2.051-1.332h-3.483a8.12 8.12 0 0 1-5.597-2.209l-4.843-4.568a2.59 2.59 0 0 1-.108-3.66 2.73 2.73 0 0 1 3.78-.153l3.802 3.405c.366.328.39.883.055 1.24a.913.913 0 0 1-1.27.055l-3.802-3.406a.899.899 0 0 0-1.245.05.853.853 0 0 0 .036 1.206l4.843 4.568a6.31 6.31 0 0 0 4.35 1.716h3.307v-5.185a6.567 6.567 0 0 1-4.832-2.295l-2.244-2.636a4.765 4.765 0 0 0-3.639-1.667h-9.383a.966.966 0 0 0-.976.953c0 .526.438.954.976.954h3.837c.496 0 .898.393.898.878a.888.888 0 0 1-.898.877h-3.837c-1.529 0-2.772-1.215-2.772-2.708 0-1.494 1.243-2.71 2.772-2.71h9.383c1.946 0 3.776.84 5.02 2.3l2.245 2.636a4.764 4.764 0 0 0 3.612 1.667 2.23 2.23 0 0 1 2.065-1.364h.867c.496 0 .898.394.898.878a.888.888 0 0 1-.898.878h-.867a.426.426 0 0 0-.43.42v7.036c0 .232.193.42.43.42h3.33v-5.884c0-.485.402-.878.898-.878.497 0 .899.393.899.878zm-17.446 22.03l-.019.008a.913.913 0 0 1-.358.074.9.9 0 0 1-.824-.528.87.87 0 0 1 .465-1.155.906.906 0 0 1 1.187.439.871.871 0 0 1-.45 1.162zm2.499-1.417l-.011.009a.908.908 0 0 1-.53.17.904.904 0 0 1-.726-.36.865.865 0 0 1 .194-1.227.916.916 0 0 1 1.258.185.861.861 0 0 1-.185 1.223zm-5.251 2.28l-.027.006a.893.893 0 0 1-1.051-.697.879.879 0 0 1 .708-1.026.899.899 0 0 1 1.061.677.877.877 0 0 1-.691 1.04zm7.38-4.174a.905.905 0 0 1-.675.298.907.907 0 0 1-.587-.213.864.864 0 0 1-.074-1.259.913.913 0 0 1 1.269-.064.864.864 0 0 1 .066 1.238zm-.56-.49l-.11-.096.1.088zm3.379-4.413l-.004.012a.896.896 0 0 1-1.123.58.874.874 0 0 1-.594-1.096.904.904 0 0 1 1.121-.588c.475.14.744.628.6 1.092zm-.175-4.603a.893.893 0 0 1-1.04-.698.879.879 0 0 1 .697-1.034.898.898 0 0 1 1.069.713.88.88 0 0 1-.726 1.019zm.718 1.832a.89.89 0 0 1-.949.813.885.885 0 0 1-.84-.962.894.894 0 0 1 .973-.798.884.884 0 0 1 .816.947zm-1.684 5.373l-.781-.433.78.434a.895.895 0 0 1-.785.457.916.916 0 0 1-.43-.107.871.871 0 0 1-.36-1.194l.013-.022a.91.91 0 0 1 1.225-.331c.431.239.583.774.338 1.196zm-17.033-16.735a.916.916 0 0 1-1.21-.391.865.865 0 0 1 .399-1.176l.008-.004a.908.908 0 0 1 1.205.393.868.868 0 0 1-.402 1.178zm2.34-.85a.894.894 0 0 1-1.092-.631.878.878 0 0 1 .647-1.07l.02-.005a.9.9 0 0 1 1.086.646.877.877 0 0 1-.662 1.06zm-4.448 2.17l-.012.01a.909.909 0 0 1-.559.19.905.905 0 0 1-.703-.33.864.864 0 0 1 .143-1.234l.56.687-.557-.689a.914.914 0 0 1 1.262.134.863.863 0 0 1-.134 1.232zm-4.022 6.08a.896.896 0 0 1-1.084.64.876.876 0 0 1-.661-1.059l.009-.032a.9.9 0 0 1 1.103-.616.876.876 0 0 1 .633 1.067zm-.36 2.428a.89.89 0 0 1-.898.846h-.027a.887.887 0 0 1-.87-.936.891.891 0 0 1 .95-.826.886.886 0 0 1 .845.916zm1.24-4.717a.912.912 0 0 1-1.2.396.868.868 0 0 1-.41-1.175l.014-.028a.909.909 0 0 1 1.213-.37.868.868 0 0 1 .383 1.177zm1.362-2.059a.906.906 0 0 1-.702.33.907.907 0 0 1-.558-.19.864.864 0 0 1-.146-1.233l.018-.022a.913.913 0 0 1 1.266-.115c.38.308.433.858.122 1.23zm-3.158 10.236a.888.888 0 0 1-1.042-.705l-.001-.009a.88.88 0 0 1 .726-1.019.897.897 0 0 1 1.042.71.883.883 0 0 1-.725 1.023zm19.475-3.61c0 1.09-.435 2.115-1.226 2.885a.897.897 0 0 1-.074.065l-5.337 4.154a.91.91 0 0 1-1.117.001l-5.12-3.96-.017-.014a4.03 4.03 0 0 1-1.502-3.132c0-2.247 1.872-4.076 4.172-4.076 1.17 0 2.253.471 3.025 1.266a4.207 4.207 0 0 1 3.024-1.266c2.3 0 4.172 1.829 4.172 4.076zm-1.797 0c0-1.28-1.065-2.321-2.375-2.321a2.37 2.37 0 0 0-2.194 1.433.899.899 0 0 1-.83.542.899.899 0 0 1-.83-.542 2.37 2.37 0 0 0-2.195-1.433c-1.31 0-2.375 1.041-2.375 2.32 0 .687.309 1.334.847 1.777l4.551 3.52 4.736-3.686c.43-.434.665-1.005.665-1.61zm-27.56 12.662c.494 0 .894.391.894.875 0 .482-.4.874-.895.874a.885.885 0 0 1-.895-.874c0-.484.4-.875.895-.875zm44.202-25.767c.495 0 .896.391.896.874s-.401.875-.896.875a.885.885 0 0 1-.895-.875c0-.483.4-.874.895-.874z"/></defs><g><g transform="translate(-215 -2053)"><use fill="#fff" xlink:href="#mxp1a"/></g></g></svg>