<svg xmlns="http://www.w3.org/2000/svg" xmlns:xlink="http://www.w3.org/1999/xlink" width="38" height="43" viewBox="0 0 38 43"><defs><path id="2z6ba" d="M534 2207.735v16.056c0 1.312-1.057 2.38-2.356 2.38h-3.808l-1.316 4.385a.626.626 0 0 1-.599.449.626.626 0 0 1-.599-.449l-1.316-4.386h-7.15v4.968h1.016c1.096 0 1.987.898 1.987 2.003v8.856a1.998 1.998 0 0 1-1.987 2.003h-13.127a1.998 1.998 0 0 1-1.988-2.003v-8.856c0-1.105.892-2.003 1.988-2.003h1.016v-4.979a2.374 2.374 0 0 1-2.136-2.368v-4.98h-1.278l-1.634 3.145a.625.625 0 0 1-1.154-.112l-.9-3.034h-.728a1.942 1.942 0 0 1-1.931-1.95v-13.91c0-1.076.866-1.95 1.93-1.95h26.804c1.033 0 1.874.849 1.874 1.893v2.462h5.036c1.299 0 2.356 1.068 2.356 2.38zm-16.128 24.664h-13.127a.74.74 0 0 0-.736.742v8.856c0 .409.33.742.736.742h13.127a.74.74 0 0 0 .736-.742v-8.856a.74.74 0 0 0-.736-.742zm-9.775-1.261v-4.968h-1.085v4.968zm5.172 0v-4.968h-3.921v4.968zm19.48-7.347v-16.056c0-.617-.496-1.12-1.105-1.12H505.98c-.609 0-1.104.503-1.104 1.12v4.287c0 .354-.291.64-.645.63-.343-.01-.607-.311-.607-.657v-4.26c0-1.312 1.057-2.38 2.356-2.38h19.376v-2.462a.628.628 0 0 0-.623-.632H497.93a.685.685 0 0 0-.68.688v13.911c0 .38.305.69.68.69h1.193c.277 0 .52.182.6.45l.593 1.998 1.096-2.11a.625.625 0 0 1 .555-.339h1.657v-1.857c0-.355.291-.641.645-.63.343.01.607.311.607.656v8.073c0 .616.495 1.118 1.104 1.118h7.209a1.977 1.977 0 0 0-1.256-1.318v.275c0 .355-.29.64-.645.63-.342-.01-.606-.311-.606-.657v-4.345c0-.354.29-.64.645-.63.342.01.606.312.606.657v.388a5.489 5.489 0 0 1 2.58.996.612.612 0 0 1 .14.835.604.604 0 0 1-.875.184 4.249 4.249 0 0 0-1.845-.744v1.109a3.236 3.236 0 0 1 2.586 3.174v5.675h1.085v-5.675c0-.424-.061-.834-.175-1.222-.101-.344.11-.7.456-.781l.016-.004a.61.61 0 0 1 .726.421c.098.333.166.677.2 1.032h7.643c.276 0 .519.183.599.448l.851 2.838.851-2.838a.627.627 0 0 1 .6-.448h4.272c.609 0 1.104-.502 1.104-1.118zm-7.3-13.46c0 .348-.28.63-.626.63H508.64a.628.628 0 0 1-.626-.63c0-.348.28-.63.626-.63h16.184c.346 0 .626.282.626.63zm3.67 0c0 .348-.28.63-.625.63h-1.502a.628.628 0 0 1-.626-.63c0-.348.28-.63.626-.63h1.502c.345 0 .625.282.625.63zm0 3.279c0 .348-.28.63-.625.63h-16.185a.628.628 0 0 1-.625-.63c0-.349.28-.63.625-.63h16.185c.345 0 .625.281.625.63zm-18.353 0c0 .348-.28.63-.626.63h-1.501a.628.628 0 0 1-.626-.63c0-.349.28-.63.626-.63h1.501c.346 0 .626.281.626.63zm9.385 3.446c0 .349-.28.63-.625.63h-10.804a.628.628 0 0 1-.625-.63c0-.348.28-.63.625-.63h10.804c.345 0 .625.282.625.63zm8.927 0c0 .349-.28.63-.626.63h-5.84a.628.628 0 0 1-.625-.63c0-.348.28-.63.625-.63h5.84c.346 0 .626.282.626.63zm-15.539 23.017c.073.378-.024.766-.267 1.063a1.268 1.268 0 0 1-.984.468h-1.959c-.382 0-.74-.17-.984-.468a1.288 1.288 0 0 1-.267-1.063l.38-1.97a2.674 2.674 0 0 1-.76-2.19 2.648 2.648 0 0 1 2.314-2.321 2.63 2.63 0 0 1 2.049.658 2.661 2.661 0 0 1 .097 3.854zm-1.43-2.722a1.395 1.395 0 0 0 .117-2.16 1.354 1.354 0 0 0-1.077-.345c-.628.07-1.135.579-1.208 1.21-.058.513.153.997.566 1.295.2.144.297.391.25.633l-.451 2.33c-.001.005-.002.011.005.02.007.009.014.009.018.009h1.958c.005 0 .012 0 .019-.009a.02.02 0 0 0 .005-.02l-.451-2.33a.633.633 0 0 1 .25-.633z"/></defs><g><g transform="translate(-496 -2201)"><use fill="#0d3e60" xlink:href="#2z6ba"/></g></g></svg>