<svg xmlns="http://www.w3.org/2000/svg" xmlns:xlink="http://www.w3.org/1999/xlink" width="45" height="45" viewBox="0 0 45 45"><defs><path id="t0ffa" d="M251.035 2430.215c.174-1.041.358-2.022.498-2.743-.862.342-2.13.937-3.408 1.864-1.848 1.338-3.19 2.972-3.993 4.856-.223.523-.465 1.03-.72 1.507-.402 1.66-1.29 3.59-3.228 4.703 1.908.303 3.605.23 5.067-.217 4.26-1.302 5.132-5.25 5.298-6.429a.69.69 0 0 1 1.364.192c-.309 2.198-1.484 4.77-3.841 6.393.846.077 1.583.163 2.182.256 1.289.2 2.356.434 2.356 1.271 0 .814-1.056 1.027-1.686 1.154-.752.152-1.818.287-3.169.402-2.743.234-6.385.363-10.255.363-1.527 0-3.047-.021-4.518-.062a.689.689 0 1 1 .039-1.377c1.457.04 2.964.061 4.479.061 5.452 0 9.591-.253 11.906-.54-.912-.116-2.174-.233-3.877-.331-.968.282-2.016.424-3.139.424-1.373 0-2.858-.212-4.443-.633h-.896c-1.585.42-3.07.633-4.443.633-1.123 0-2.17-.142-3.137-.424-1.704.098-2.967.215-3.878.33.857.11 2.07.226 3.775.326a.689.689 0 1 1-.08 1.375c-1.91-.112-3.503-.264-4.608-.44-1.253-.198-2.29-.43-2.29-1.26 0-.838 1.066-1.072 2.355-1.272a35.39 35.39 0 0 1 2.168-.254c-2.48-1.695-3.634-4.422-3.87-6.748-.292-2.887-1.155-6.983-1.164-7.024a.69.69 0 0 1 .85-.809c.085.023 1.838.494 3.89 1.75a.689.689 0 0 1 1.364.156c-.011.258-.017.514-.018.764 1.42 1.078 2.561 2.326 3.405 3.727.153-1.434.566-3.016 1.235-4.734-1.199-1.528-2.59-2.748-4.146-3.639l-.063.33a.689.689 0 0 1-1.354-.25c.144-.78.267-1.262.273-1.282a.689.689 0 0 1 .968-.449c1.851.9 3.504 2.195 4.926 3.856.185-.41.383-.827.595-1.25 1.485-2.974 3.073-5.154 3.14-5.246a.689.689 0 0 1 1.112 0c.15.204 2.16 2.98 3.738 6.491 1.422-1.658 3.073-2.952 4.923-3.85a.689.689 0 0 1 .968.448c.027.106.582 2.294.704 4.923 2.048-1.252 3.797-1.722 3.882-1.745a.689.689 0 0 1 .85.81 101.96 101.96 0 0 0-.726 3.87.69.69 0 0 1-1.36-.227zm-16.22 10.186c-1.938-1.112-2.825-3.04-3.227-4.7a19.25 19.25 0 0 1-.72-1.51c-.803-1.883-2.146-3.517-3.994-4.855a15.854 15.854 0 0 0-3.407-1.865c.284 1.454.743 3.969.947 5.985.258 2.544 1.795 5.647 5.334 6.729 1.462.447 3.16.519 5.067.216zm2.685-19.283c-1.507 2.27-5.502 8.836-4.718 13.55.364 2.187 1.28 3.715 2.723 4.541 1.018.583 1.942.592 1.981.593h.031c.208 0 3.86-.076 4.701-5.134.783-4.714-3.211-11.28-4.718-13.55zm9.534 7.314c-.007-1.868-.294-3.638-.494-4.646-1.555.89-2.945 2.11-4.144 3.636.595 1.54 1.062 3.164 1.23 4.741.845-1.403 1.986-2.652 3.408-3.731zm-8.845-18.743v2.57a.689.689 0 1 1-1.378 0v-2.57a.689.689 0 0 1 1.378 0zm0 41.05v2.572a.689.689 0 0 1-1.378 0v-2.571a.689.689 0 1 1 1.378 0zm-9.965-35.305a.687.687 0 0 1-.94-.252l-1.286-2.227a.688.688 0 1 1 1.193-.689l1.285 2.227c.19.33.078.75-.252.941zm20.526 35.551a.686.686 0 0 1-.941-.252l-1.286-2.226a.689.689 0 0 1 1.193-.69l1.286 2.228c.19.33.077.75-.252.94zm-27.316-28.76a.688.688 0 0 1-.941.251l-2.227-1.285a.689.689 0 1 1 .69-1.193l2.226 1.285c.33.19.442.612.252.941zm35.551 20.525a.689.689 0 0 1-.94.252l-2.227-1.286a.688.688 0 1 1 .689-1.193l2.226 1.286c.33.19.443.611.252.94zm-38.036-11.25c0 .38-.309.689-.69.689h-2.57a.689.689 0 1 1 0-1.378h2.57c.381 0 .69.309.69.689zm41.05 0c0 .38-.307.689-.688.689h-2.571a.689.689 0 1 1 0-1.378h2.571c.38 0 .689.309.689.689zm-38.817 10.216l-2.227 1.286a.69.69 0 0 1-.689-1.193l2.227-1.286a.689.689 0 0 1 .689 1.193zm35.551-20.525l-2.226 1.285a.688.688 0 1 1-.69-1.193l2.227-1.285a.69.69 0 0 1 .69 1.193zm-28.257 27.316l-1.285 2.226a.688.688 0 1 1-1.193-.688l1.285-2.227a.689.689 0 1 1 1.193.689zm20.526-35.552l-1.286 2.227a.689.689 0 0 1-1.193-.689l1.286-2.227a.689.689 0 0 1 1.193.69z"/></defs><g><g transform="translate(-215 -2409)"><use fill="#fff" xlink:href="#t0ffa"/></g></g></svg>