<svg xmlns="http://www.w3.org/2000/svg" xmlns:xlink="http://www.w3.org/1999/xlink" width="118" height="77" viewBox="0 0 118 77"><defs><path id="tqzcb" d="M242 319c.96 0 1.91.05 2.844.148C250.478 305.558 263.873 296 279.5 296c14.136 0 26.444 7.821 32.835 19.372 1.87-.88 3.96-1.372 6.165-1.372 8.008 0 14.5 6.492 14.5 14.5s-6.492 14.5-14.5 14.5c-.906 0-1.792-.083-2.652-.242C311.726 358.991 297.016 371 279.5 371a37.326 37.326 0 0 1-19.112-5.23A26.905 26.905 0 0 1 242 373c-14.912 0-27-12.088-27-27s12.088-27 27-27z"/><path id="tqzcc" d="M259.806 326.42c1.821-.354 3.59.862 3.95 2.716.362 1.855-.822 3.646-2.643 4-1.822.354-3.59-.862-3.951-2.717-.361-1.854.823-3.645 2.644-4z"/><path id="tqzcd" d="M281.57 322.187c1.821-.355 3.59.862 3.95 2.716.362 1.855-.822 3.645-2.644 4-1.82.354-3.59-.862-3.95-2.717-.361-1.855.823-3.645 2.644-4z"/><path id="tqzca" d="M272.909 335.72c5.281-1.027 9.943.095 10.412 2.506.469 2.411-3.432 5.199-8.714 6.226-5.281 1.027-9.943-.095-10.412-2.506-.469-2.41 3.432-5.198 8.714-6.225z"/><path id="tqzcf" d="M275.142 340.165c2.732-.53 5.356 1.143 5.861 3.74.505 2.596-1.3 5.132-4.032 5.663-2.732.532-5.355-1.143-5.86-3.739-.506-2.597 1.3-5.132 4.031-5.664z"/><path id="tqzcg" d="M254.903 339.92c1.457-.283 2.872.69 3.16 2.173.29 1.484-.658 2.917-2.115 3.2-1.457.283-2.872-.69-3.16-2.173-.29-1.484.658-2.917 2.115-3.2z"/><path id="tqzch" d="M291.836 332.736c1.457-.283 2.872.69 3.16 2.174.289 1.483-.658 2.916-2.115 3.2-1.457.283-2.872-.69-3.16-2.174-.29-1.484.658-2.916 2.115-3.2z"/><clipPath id="tqzce"><use xlink:href="#tqzca"/></clipPath></defs><g><g transform="translate(-215 -296)"><g><use fill="#fff" xlink:href="#tqzcb"/></g><g><g><use fill="#0d3e60" xlink:href="#tqzcc"/></g><g><use fill="#0d3e60" xlink:href="#tqzcd"/></g><g><use fill="#0d3e60" xlink:href="#tqzca"/></g><g clip-path="url(#tqzce)"><use fill="#eb5238" xlink:href="#tqzcf"/></g><g><use fill="#b8a4de" xlink:href="#tqzcg"/></g><g><use fill="#b8a4de" xlink:href="#tqzch"/></g></g></g></g></svg>