<svg xmlns="http://www.w3.org/2000/svg" xmlns:xlink="http://www.w3.org/1999/xlink" width="86" height="49" viewBox="0 0 86 49"><defs><path id="eqfca" d="M1235.5 273c1.58 0 3.098.272 4.508.77 3.764-8.69 12.418-14.77 22.492-14.77 10.51 0 19.473 6.617 22.952 15.911A13.94 13.94 0 0 1 1294 272c7.732 0 14 6.268 14 14s-6.268 14-14 14a13.961 13.961 0 0 1-10.191-4.401c-4.214 7.406-12.178 12.4-21.309 12.4-8.138 0-15.35-3.967-19.805-10.074A13.437 13.437 0 0 1 1235.5 300c-7.456 0-13.5-6.044-13.5-13.5s6.044-13.5 13.5-13.5z"/><path id="eqfcb" d="M1264.812 286.094c4.73 0 8.563 1.287 8.563 2.875s-3.834 2.875-8.563 2.875c-4.729 0-8.562-1.287-8.562-2.875s3.833-2.875 8.562-2.875z"/><path id="eqfcc" d="M1258.667 277.723l-3.602 3.343h1.696l3.602-3.343-3.602-3.358h-1.696z"/><path id="eqfcd" d="M1270.27 277.405l3.635-3.4h-1.713l-3.636 3.4 3.636 3.416h1.713z"/><path id="eqfce" d="M1264.766 282.906c2.666 0 4.828 2.707 4.828 6.047s-2.162 6.047-4.828 6.047c-2.667 0-4.829-2.707-4.829-6.047s2.162-6.047 4.829-6.047z"/><path id="eqfcf" d="M1247.922 283.219c1.614 0 2.922 1.294 2.922 2.89 0 1.597-1.308 2.891-2.922 2.891s-2.922-1.294-2.922-2.89c0-1.597 1.308-2.891 2.922-2.891z"/><path id="eqfcg" d="M1280.078 283.219c1.614 0 2.922 1.294 2.922 2.89 0 1.597-1.308 2.891-2.922 2.891s-2.922-1.294-2.922-2.89c0-1.597 1.308-2.891 2.922-2.891z"/></defs><g><g transform="translate(-1222 -259)"><g><use fill="#fff" xlink:href="#eqfca"/></g><g><g><use fill="#0d3e60" xlink:href="#eqfcb"/></g><g><use fill="#0d3e60" xlink:href="#eqfcc"/></g><g><use fill="#0d3e60" xlink:href="#eqfcd"/></g><g><use fill="#eb5238" xlink:href="#eqfce"/></g><g><use fill="#e8ddff" xlink:href="#eqfcf"/></g><g><use fill="#e8dbfe" xlink:href="#eqfcg"/></g></g></g></g></svg>